      <svg
        width="599"
        height="396"
        viewBox="0 0 599 396"
        fill="none"
        xmlns="http://www.w3.org/2000/svg"
      >
        <path
          d="M584.806 342.336H161.489C157.725 342.336 154.114 340.915 151.452 338.385C148.79 335.856 147.295 332.426 147.295 328.849C300.747 311.903 451.316 311.903 599 328.849C599 332.426 597.504 335.856 594.843 338.385C592.181 340.915 588.57 342.336 584.806 342.336Z"
          fill="#1DB954"
        />
        <path
          d="M599 329.642L147.295 328.849L199.646 245.149L199.897 244.752V60.2876C199.896 58.0486 200.36 55.8315 201.262 53.7629C202.164 51.6943 203.485 49.8147 205.151 48.2315C206.818 46.6483 208.796 45.3924 210.973 44.5357C213.15 43.679 215.483 43.2381 217.839 43.2383H525.951C528.307 43.2381 530.64 43.679 532.817 44.5357C534.994 45.3924 536.972 46.6483 538.639 48.2315C540.305 49.8147 541.626 51.6943 542.528 53.7629C543.43 55.8315 543.894 58.0486 543.894 60.2876V246.022L599 329.642Z"
          fill="#1ED760"
        />
        <path
          d="M217.43 55.1387C215.881 55.1403 214.395 55.726 213.3 56.7671C212.204 57.8082 211.588 59.2198 211.586 60.6922V228.885C211.588 230.357 212.204 231.769 213.3 232.81C214.395 233.851 215.881 234.437 217.43 234.438H528.865C530.414 234.437 531.9 233.851 532.995 232.81C534.091 231.769 534.708 230.357 534.709 228.885V60.6922C534.708 59.2198 534.091 57.8083 532.996 56.7672C531.9 55.726 530.414 55.1404 528.865 55.1387H217.43Z"
          fill="#363636"
        />
        <path
          d="M218.735 256.653C218.257 256.653 217.788 256.784 217.385 257.03C216.982 257.275 216.661 257.625 216.46 258.038L200.329 291.359C200.153 291.722 200.076 292.12 200.105 292.519C200.134 292.917 200.268 293.302 200.495 293.638C200.722 293.974 201.034 294.25 201.402 294.442C201.771 294.634 202.184 294.734 202.604 294.734H541.83C542.257 294.734 542.677 294.63 543.05 294.433C543.423 294.235 543.736 293.95 543.961 293.605C544.185 293.26 544.313 292.866 544.332 292.461C544.351 292.055 544.261 291.652 544.07 291.289L526.536 257.968C526.329 257.572 526.01 257.239 525.614 257.006C525.218 256.774 524.762 256.651 524.296 256.653H218.735Z"
          fill="#363636"
        />
        <path
          d="M371.895 52.3619C373.97 52.3619 375.652 50.7635 375.652 48.7918C375.652 46.8201 373.97 45.2217 371.895 45.2217C369.82 45.2217 368.138 46.8201 368.138 48.7918C368.138 50.7635 369.82 52.3619 371.895 52.3619Z"
          fill="#363636"
        />
        <path
          d="M338.552 301.081C338.001 301.081 337.466 301.254 337.029 301.573C336.592 301.891 336.277 302.337 336.134 302.842L332.087 317.122C331.987 317.475 331.974 317.845 332.049 318.203C332.123 318.562 332.284 318.899 332.517 319.189C332.751 319.479 333.052 319.714 333.397 319.876C333.742 320.037 334.121 320.121 334.506 320.121H411.457C411.856 320.121 412.25 320.031 412.605 319.857C412.96 319.683 413.266 319.431 413.497 319.122C413.729 318.813 413.879 318.455 413.936 318.08C413.993 317.704 413.954 317.321 413.823 316.963L408.621 302.682C408.451 302.215 408.131 301.809 407.707 301.522C407.283 301.235 406.775 301.081 406.254 301.081H338.552Z"
          fill="#363636"
        />
        <path
          d="M543.893 241.975V245.148H199.646L199.905 244.752V241.975H543.893Z"
          fill="#363636"
        />
        <path
          d="M534.292 111.071C566.571 111.071 592.738 86.2066 592.738 55.5353C592.738 24.864 566.571 0 534.292 0C502.013 0 475.846 24.864 475.846 55.5353C475.846 86.2066 502.013 111.071 534.292 111.071Z"
          fill="#2E2D2D"
        />
        <path
          d="M558.505 79.7327H510.078C509.193 79.7319 508.344 79.3973 507.718 78.8023C507.092 78.2074 506.74 77.4007 506.739 76.5593V48.7916C506.74 47.9502 507.092 47.1436 507.718 46.5486C508.344 45.9537 509.193 45.6191 510.078 45.6182H558.505C559.391 45.6191 560.24 45.9537 560.866 46.5486C561.492 47.1436 561.844 47.9502 561.845 48.7916V76.5593C561.844 77.4007 561.492 78.2074 560.866 78.8023C560.24 79.3973 559.391 79.7319 558.505 79.7327ZM510.078 48.7916V76.5593H558.508L558.505 48.7916L510.078 48.7916Z"
          fill="#1ED760"
        />
        <path
          d="M549.321 48.7917H519.263V36.098C519.263 26.9038 525.584 20.2307 534.292 20.2307C543 20.2307 549.321 26.9038 549.321 36.098L549.321 48.7917ZM522.603 45.6183H545.981V36.098C545.981 28.6241 541.174 23.4042 534.292 23.4042C527.409 23.4042 522.603 28.6242 522.603 36.098L522.603 45.6183Z"
          fill="#1ED760"
        />
        <path
          d="M534.292 65.0556C536.136 65.0556 537.632 63.6348 537.632 61.8822C537.632 60.1295 536.136 58.7087 534.292 58.7087C532.447 58.7087 530.952 60.1295 530.952 61.8822C530.952 63.6348 532.447 65.0556 534.292 65.0556Z"
          fill="#1ED760"
        />
        <path
          d="M493.491 177.389H252.804C251.622 177.388 250.489 176.941 249.654 176.147C248.818 175.353 248.348 174.277 248.347 173.154V116.423C248.348 115.3 248.818 114.224 249.654 113.43C250.489 112.636 251.622 112.189 252.804 112.188H493.491C494.673 112.189 495.806 112.636 496.642 113.43C497.477 114.224 497.947 115.3 497.948 116.423V173.154C497.947 174.277 497.477 175.353 496.642 176.147C495.806 176.941 494.673 177.388 493.491 177.389ZM252.804 113.882C252.095 113.883 251.415 114.151 250.914 114.627C250.412 115.103 250.13 115.749 250.129 116.423V173.154C250.13 173.828 250.412 174.473 250.914 174.95C251.415 175.426 252.095 175.694 252.804 175.695H493.491C494.2 175.694 494.88 175.426 495.382 174.95C495.883 174.473 496.165 173.828 496.166 173.154V116.423C496.165 115.749 495.883 115.103 495.382 114.627C494.88 114.151 494.2 113.883 493.491 113.882L252.804 113.882Z"
          fill="#1DB954"
        />
        <path
          d="M290.202 159.864C300.229 159.864 308.358 152.14 308.358 142.612C308.358 133.084 300.229 125.36 290.202 125.36C280.174 125.36 272.046 133.084 272.046 142.612C272.046 152.14 280.174 159.864 290.202 159.864Z"
          fill="#1DB954"
        />
        <path
          d="M332.134 131.111C331.736 131.11 331.342 131.184 330.974 131.328C330.607 131.472 330.273 131.684 329.991 131.951C329.71 132.218 329.486 132.535 329.334 132.885C329.181 133.234 329.103 133.608 329.103 133.986C329.103 134.364 329.181 134.738 329.334 135.087C329.486 135.436 329.71 135.754 329.991 136.021C330.273 136.288 330.607 136.499 330.974 136.644C331.342 136.788 331.736 136.862 332.134 136.861H474.789C475.592 136.861 476.362 136.558 476.929 136.019C477.496 135.48 477.815 134.749 477.815 133.986C477.815 133.223 477.496 132.492 476.929 131.953C476.362 131.414 475.592 131.111 474.789 131.111H332.134Z"
          fill="#1DB954"
        />
        <path
          d="M332.134 148.363C331.331 148.363 330.562 148.665 329.994 149.205C329.427 149.744 329.108 150.475 329.108 151.238C329.108 152 329.427 152.732 329.994 153.271C330.562 153.81 331.331 154.113 332.134 154.113H393.519C394.321 154.113 395.091 153.81 395.659 153.271C396.226 152.732 396.545 152 396.545 151.238C396.545 150.475 396.226 149.744 395.659 149.205C395.091 148.665 394.321 148.363 393.519 148.363H332.134Z"
          fill="#1DB954"
        />
      </svg>