<svg width="744" height="689" viewBox="0 0 744 689" fill="none" xmlns="http://www.w3.org/2000/svg">
<g clip-path="url(#clip0_0_234)">
<circle cx="366.5" cy="347.5" r="321.5" fill="url(#paint0_radial_0_234)"/>
<path d="M687.982 354.15L673.116 354.073M629.848 505.47L641.957 513.241M475.387 650.032L470.345 636.755M581.469 566.885L569.666 554.962M641.142 263.998L657.503 258.336M482.052 597.666L487.189 612.29M415.766 633.754L418.99 648.966M533.13 547.803L519.822 535.866M82.904 399.2L98.5424 395.542M271.943 551.705L265.464 566.451M137.139 409.337L120.979 415.493M69.7868 293.995L50.5001 292" stroke="#1DB954" stroke-width="3"/>
<path d="M438.786 53.4099C291.926 22.768 179.328 94.5699 127.501 163.765" stroke="#1DB954" stroke-width="3"/>
<path d="M105.99 196.344C79.7103 243.732 72.5376 271.654 69.7868 293.995" stroke="#1DB954" stroke-width="3"/>
<path d="M147.872 383.79C137.114 324.505 158.289 266.612 174.595 239.513" stroke="#1DB954" stroke-width="3"/>
<path d="M145.166 269.26C128.219 307.01 125.947 362.393 137.139 409.338" stroke="#1DB954" stroke-width="3"/>
<path d="M120.978 415.493C116.02 398.863 107.907 351.772 120.112 294.489" stroke="#1DB954" stroke-width="3"/>
<path d="M120.978 415.493C139.959 484.609 178.026 531.121 216.706 556.75" stroke="#1DB954" stroke-width="3"/>
<path d="M111.967 443.205C131.415 496.152 160.525 529.135 172.65 539.008" stroke="#1DB954" stroke-width="3"/>
<path d="M253.684 596.277C312.992 626.318 384.628 623.764 412.961 618.227" stroke="#1DB954" stroke-width="3"/>
<path d="M519.822 535.866C491.555 557.985 455.266 574.218 438.284 580.184" stroke="#1DB954" stroke-width="3"/>
<path d="M505.283 567.247C411.265 620.943 345.39 605.397 300.499 596.789" stroke="#1DB954" stroke-width="3"/>
<path d="M367.128 590.341C336.73 588.16 301.227 583.202 265.464 566.451" stroke="#1DB954" stroke-width="3"/>
<path d="M172.221 486.576C201.189 526.981 233.43 551.447 265.464 566.451" stroke="#1DB954" stroke-width="3"/>
<path d="M167.289 445.382C200.995 515.684 247.363 537.552 271.943 551.706" stroke="#1DB954" stroke-width="3"/>
<path d="M50.5 292C34.6222 376.541 54.9322 434.349 74.5 481" stroke="#1DB954" stroke-width="3"/>
<path d="M131.768 542.198C77.9658 480.734 62.0966 385.605 63.4927 347.842" stroke="#1DB954" stroke-width="3"/>
<path d="M206.355 625.091L219.427 599.259" stroke="#1DB954" stroke-width="3"/>
<path d="M220.5 600C137.007 550.897 92.6282 463.088 82.9039 399.2" stroke="#1DB954" stroke-width="3"/>
<path d="M162 594.5C175.656 606.329 190.851 616.14 206.355 625.092" stroke="#1DB954" stroke-width="3"/>
<path d="M656.5 211C685.066 264.56 689.156 328.83 687.982 354.15" stroke="#1DB954" stroke-width="3"/>
<path d="M588.671 442.562C580.395 468.787 558.003 497.581 545.393 509.96" stroke="#1DB954" stroke-width="3"/>
<path d="M642.786 431.823L631 427" stroke="#1DB954" stroke-width="3"/>
<path d="M637 400L634 413.5" stroke="#1DB954" stroke-width="3"/>
<path d="M631 427L634 413.5" stroke="#1DB954" stroke-width="3"/>
<path d="M600.373 407.587L617 414.5" stroke="#1DB954" stroke-width="3"/>
<path d="M363 669C327.96 671.305 263.494 658.083 206.355 625.091" stroke="#1DB954" stroke-width="3"/>
<path d="M418.99 648.966C388.136 657.685 335.982 653.041 313.819 648.285" stroke="#1DB954" stroke-width="3"/>
<path d="M284.038 625.359C307.103 632.778 357.258 643.123 415.766 633.755" stroke="#1DB954" stroke-width="3"/>
<path d="M507.895 601.836C476.661 619.365 445.159 629.048 415.766 633.754" stroke="#1DB954" stroke-width="3"/>
<path d="M604.249 486.906C566.915 545.066 538.176 567.351 482.052 597.666" stroke="#1DB954" stroke-width="3"/>
<path d="M607.446 538.248C598.279 549.141 589.726 558.574 581.469 566.885" stroke="#1DB954" stroke-width="3"/>
<path d="M470.345 636.755C517.62 616.727 546.955 601.62 581.469 566.885" stroke="#1DB954" stroke-width="3"/>
<path d="M549.106 612.477C519.373 631.931 487.614 646.62 475.387 650.032" stroke="#1DB954" stroke-width="3"/>
<path d="M641.957 513.241C625.605 542.727 594.262 574.871 580.755 587.211" stroke="#1DB954" stroke-width="3"/>
<path d="M673.116 354.073C669.746 419.911 656.102 456.501 629.848 505.47" stroke="#1DB954" stroke-width="3"/>
<path d="M653.362 491.952C669.326 461.966 682.008 411.573 684.5 389.5" stroke="#1DB954" stroke-width="3"/>
<path d="M457.18 555.527C388.663 582.247 355.034 572.509 330.437 570.374" stroke="#1DB954" stroke-width="3"/>
<path d="M457.18 555.527C491.136 542.121 533.061 510.351 561.233 464.39" stroke="#1DB954" stroke-width="3"/>
<path d="M570.641 255.463C607.885 339.68 593.683 411.449 561.233 464.39" stroke="#1DB954" stroke-width="3"/>
<path d="M653.644 329.437C655.582 368.704 651.156 402.547 642.785 431.823" stroke="#1DB954" stroke-width="3"/>
<path d="M617 414.5C604.257 469.879 562.787 523.606 533.13 547.803" stroke="#1DB954" stroke-width="3"/>
<path d="M602.5 295C610.872 320.04 608.407 376.147 600.373 407.587" stroke="#1DB954" stroke-width="3"/>
<path d="M592.483 227.122C621.612 278.364 628.29 339.613 623.979 366.565" stroke="#1DB954" stroke-width="3"/>
<path d="M657.503 258.336C653.404 239.426 640.132 213.916 634.009 203.525" stroke="#1DB954" stroke-width="3"/>
<path d="M648.943 296.764C649.045 287.401 643.785 271.019 641.142 263.998" stroke="#1DB954" stroke-width="3"/>
<path d="M120.634 141.763C79.9096 185.746 65.355 237.103 57.5 260" stroke="#1DB954" stroke-width="3"/>
<path d="M471.262 43.2952L464.539 61.108M614.726 171.249L628.97 161.917" stroke="#1DB954" stroke-width="3"/>
<path d="M628.97 161.917C609.505 135.848 590.918 114.925 565.575 95.6902" stroke="#1DB954" stroke-width="3"/>
<path d="M464.539 61.1082C546.151 89.7769 598.299 145.05 614.726 171.25" stroke="#1DB954" stroke-width="3"/>
<path d="M160.364 101.307C289.456 -2.22041 409.699 23.6393 471.262 43.2953" stroke="#1DB954" stroke-width="3"/>
<path d="M539.5 206.5C487 147.5 412 105.5 324.5 130.5" stroke="#1DB954" stroke-width="3"/>
<circle cx="580.91" cy="589.435" r="6" transform="rotate(70.6442 580.91 589.435)" fill="#1DB954"/>
<circle cx="589.002" cy="443.505" r="6" transform="rotate(70.6442 589.002 443.505)" fill="#1DB954"/>
<circle cx="623.837" cy="367.674" r="6" transform="rotate(70.6442 623.837 367.674)" fill="#1DB954"/>
<circle cx="177.384" cy="237.273" r="6" transform="rotate(70.6442 177.384 237.273)" fill="#1DB954"/>
<path d="M427 102L424 115.5M270.5 130.5L264.5 117.5" stroke="#1DB954" stroke-width="3"/>
<path d="M507.5 136C473.5 114.5 446 106 427 102" stroke="#1DB954" stroke-width="3"/>
<path d="M264.5 117.5C304.5 97.5002 368.5 92.5001 400 97.5002" stroke="#1DB954" stroke-width="3"/>
<path d="M424 115.5C360 98.3002 295 118.334 270.5 130.5" stroke="#1DB954" stroke-width="3"/>
<circle cx="200.65" cy="203.649" r="6" transform="rotate(70.6442 200.65 203.649)" fill="#1DB954"/>
<circle cx="263.65" cy="154.649" r="6" transform="rotate(70.6442 263.65 154.649)" fill="#1DB954"/>
<circle cx="148.828" cy="192.189" r="6" transform="rotate(70.6442 148.828 192.189)" fill="#1DB954"/>
<path d="M124.306 147.236C121.18 148.334 117.755 146.69 116.656 143.564C115.558 140.437 117.202 137.012 120.329 135.914C123.455 134.816 126.88 136.46 127.978 139.586C129.077 142.713 127.432 146.138 124.306 147.236Z" fill="#1DB954"/>
<circle cx="108.718" cy="195.68" r="6" transform="rotate(70.6442 108.718 195.68)" fill="#1DB954"/>
<circle cx="121.334" cy="291.939" r="6" transform="rotate(70.6442 121.334 291.939)" fill="#1DB954"/>
<circle cx="146.223" cy="266.238" r="6" transform="rotate(70.6442 146.223 266.238)" fill="#1DB954"/>
<circle cx="141.65" cy="233.649" r="6" transform="rotate(70.6442 141.65 233.649)" fill="#1DB954"/>
<circle cx="245.65" cy="126.649" r="6" transform="rotate(70.6442 245.65 126.649)" fill="#1DB954"/>
<circle cx="241.65" cy="146.649" r="6" transform="rotate(70.6442 241.65 146.649)" fill="#1DB954"/>
<circle cx="57.6495" cy="260.649" r="6" transform="rotate(70.6442 57.6495 260.649)" fill="#1DB954"/>
<circle cx="63.7878" cy="347.443" r="6" transform="rotate(70.6442 63.7878 347.443)" fill="#1DB954"/>
<circle cx="505.282" cy="567.247" r="6" transform="rotate(70.6442 505.282 567.247)" fill="#1DB954"/>
<circle cx="509.003" cy="601.977" r="6" transform="rotate(70.6442 509.003 601.977)" fill="#1DB954"/>
<circle cx="549.367" cy="614.295" r="6" transform="rotate(70.6442 549.367 614.295)" fill="#1DB954"/>
<circle cx="438.754" cy="580.018" r="6" transform="rotate(70.6442 438.754 580.018)" fill="#1DB954"/>
<circle cx="414.069" cy="618.367" r="6" transform="rotate(70.6442 414.069 618.367)" fill="#1DB954"/>
<circle cx="367.127" cy="590.341" r="6" transform="rotate(70.6442 367.127 590.341)" fill="#1DB954"/>
<circle cx="328.217" cy="570.093" r="6" transform="rotate(70.6442 328.217 570.093)" fill="#1DB954"/>
<circle cx="365.236" cy="669.439" r="6" transform="rotate(70.6442 365.236 669.439)" fill="#1DB954"/>
<circle cx="313.678" cy="649.394" r="6" transform="rotate(70.6442 313.678 649.394)" fill="#1DB954"/>
<circle cx="282.596" cy="624.276" r="6" transform="rotate(70.6442 282.596 624.276)" fill="#1DB954"/>
<circle cx="252.407" cy="595.664" r="6" transform="rotate(70.6442 252.407 595.664)" fill="#1DB954"/>
<circle cx="220.791" cy="556.955" r="6" transform="rotate(70.6442 220.791 556.955)" fill="#1DB954"/>
<circle cx="174.576" cy="541.644" r="6" transform="rotate(70.6442 174.576 541.644)" fill="#1DB954"/>
<circle cx="161.606" cy="593.645" r="6" transform="rotate(70.6442 161.606 593.645)" fill="#1DB954"/>
<circle cx="134.223" cy="542.849" r="6" transform="rotate(70.6442 134.223 542.849)" fill="#1DB954"/>
<circle cx="75.6495" cy="482.649" r="6" transform="rotate(70.6442 75.6495 482.649)" fill="#1DB954"/>
<circle cx="111.683" cy="441.581" r="6" transform="rotate(70.6442 111.683 441.581)" fill="#1DB954"/>
<circle cx="171.25" cy="485.326" r="6" transform="rotate(70.6442 171.25 485.326)" fill="#1DB954"/>
<circle cx="166.765" cy="442.385" r="6" transform="rotate(70.6442 166.765 442.385)" fill="#1DB954"/>
<circle cx="148.485" cy="387.332" r="6" transform="rotate(70.6442 148.485 387.332)" fill="#1DB954"/>
<circle cx="608.223" cy="537.445" r="6" transform="rotate(70.6442 608.223 537.445)" fill="#1DB954"/>
<circle cx="604.86" cy="485.631" r="6" transform="rotate(70.6442 604.86 485.631)" fill="#1DB954"/>
<circle cx="591.819" cy="225.235" r="6" transform="rotate(70.6442 591.819 225.235)" fill="#1DB954"/>
<circle cx="569.812" cy="253.104" r="6" transform="rotate(70.6442 569.812 253.104)" fill="#1DB954"/>
<circle cx="601.65" cy="291.649" r="6" transform="rotate(70.6442 601.65 291.649)" fill="#1DB954"/>
<circle cx="540.65" cy="207.649" r="6" transform="rotate(70.6442 540.65 207.649)" fill="#1DB954"/>
<circle cx="545.522" cy="512.834" r="6" transform="rotate(70.6442 545.522 512.834)" fill="#1DB954"/>
<path d="M655.571 498.078C652.444 499.176 649.02 497.532 647.921 494.406C646.823 491.279 648.467 487.855 651.594 486.756C654.72 485.658 658.145 487.302 659.243 490.429C660.341 493.555 658.697 496.98 655.571 498.078Z" fill="#1DB954"/>
<path d="M686.167 395.115C683.041 396.213 679.616 394.569 678.518 391.442C677.419 388.316 679.063 384.891 682.19 383.793C685.316 382.695 688.741 384.339 689.839 387.465C690.938 390.592 689.293 394.016 686.167 395.115Z" fill="#1DB954"/>
<circle cx="655.796" cy="211.239" r="6" transform="rotate(70.6442 655.796 211.239)" fill="#1DB954"/>
<circle cx="564.243" cy="94.5598" r="6" transform="rotate(70.6442 564.243 94.5598)" fill="#1DB954"/>
<circle cx="633.511" cy="202.11" r="6" transform="rotate(70.6442 633.511 202.11)" fill="#1DB954"/>
<circle cx="641.65" cy="343.649" r="6" transform="rotate(70.6442 641.65 343.649)" fill="#1DB954"/>
<circle cx="451.65" cy="123.649" r="6" transform="rotate(70.6442 451.65 123.649)" fill="#1DB954"/>
<circle cx="649.901" cy="297.043" r="6" transform="rotate(70.6442 649.901 297.043)" fill="#1DB954"/>
<circle cx="654.204" cy="329.169" r="6" transform="rotate(70.6442 654.204 329.169)" fill="#1DB954"/>
<circle cx="636.049" cy="399.42" r="6" transform="rotate(70.6442 636.049 399.42)" fill="#1DB954"/>
<circle cx="300.167" cy="595.845" r="6" transform="rotate(70.6442 300.167 595.845)" fill="#1DB954"/>
<path d="M548.494 83.0122C526.198 67.6782 503.475 55.818 493.358 52.0559" stroke="#1DB954" stroke-width="3"/>
<circle cx="549.46" cy="83.6754" r="6" transform="rotate(70.6442 549.46 83.6754)" fill="#1DB954"/>
<circle cx="492.958" cy="51.5435" r="6" transform="rotate(70.6442 492.958 51.5435)" fill="#1DB954"/>
<circle cx="161.514" cy="100.481" r="6" transform="rotate(70.6442 161.514 100.481)" fill="#1DB954"/>
<circle cx="196.65" cy="116.649" r="6" transform="rotate(70.6442 196.65 116.649)" fill="#1DB954"/>
<circle cx="286.65" cy="73.6495" r="6" transform="rotate(70.6442 286.65 73.6495)" fill="#1DB954"/>
<circle cx="127.658" cy="162.817" r="6" transform="rotate(70.6442 127.658 162.817)" fill="#1DB954"/>
<circle cx="440.37" cy="53.141" r="6" transform="rotate(70.6442 440.37 53.141)" fill="#1DB954"/>
<circle cx="329.65" cy="81.6495" r="6" transform="rotate(70.6442 329.65 81.6495)" fill="#1DB954"/>
<circle cx="398.65" cy="96.6495" r="6" transform="rotate(70.6442 398.65 96.6495)" fill="#1DB954"/>
<circle cx="507.65" cy="135.649" r="6" transform="rotate(70.6442 507.65 135.649)" fill="#1DB954"/>
<path d="M267 152C238 166.5 208.667 191.667 200.5 204" stroke="#1DB954" stroke-width="3"/>
<circle cx="635.65" cy="243.649" r="6" transform="rotate(70.6442 635.65 243.649)" fill="#1DB954"/>
<path d="M196 118C216.5 99.5 269.333 76.8333 290 72" stroke="#1DB954" stroke-width="3"/>
<path d="M222.963 348.52C228.163 350.36 230.763 354.6 230.763 361.24V375.16C230.763 385.72 225.803 391 215.883 391H185.043V313.36H214.923C224.843 313.36 229.803 318.64 229.803 329.2V336.28C229.803 342.68 227.523 346.76 222.963 348.52ZM210.723 324.76H201.843V345.52H210.723C211.363 345.52 211.883 345.28 212.283 344.8C212.763 344.32 213.003 343.76 213.003 343.12V327.16C213.003 326.52 212.763 325.96 212.283 325.48C211.883 325 211.363 324.76 210.723 324.76ZM213.963 377.08V359.68C213.963 359.04 213.723 358.48 213.243 358C212.843 357.52 212.323 357.28 211.683 357.28H201.843V379.48H211.683C212.323 379.48 212.843 379.24 213.243 378.76C213.723 378.28 213.963 377.72 213.963 377.08ZM259.03 313.36V391H242.23V313.36H259.03ZM314.607 333.76H298.647V327.64C298.647 327 298.407 326.44 297.927 325.96C297.527 325.48 297.007 325.24 296.367 325.24H289.767C289.127 325.24 288.567 325.48 288.087 325.96C287.687 326.44 287.487 327 287.487 327.64V341.44C287.487 342.08 287.687 342.64 288.087 343.12C288.567 343.6 289.127 343.84 289.767 343.84H300.567C310.487 344 315.447 349.28 315.447 359.68V376.36C315.447 386.92 310.487 392.2 300.567 392.2H286.407C276.487 392.2 271.527 386.92 271.527 376.36V368.32H287.487V376.96C287.487 377.6 287.687 378.16 288.087 378.64C288.567 379.12 289.127 379.36 289.767 379.36H297.207C297.847 379.36 298.367 379.12 298.767 378.64C299.247 378.16 299.487 377.6 299.487 376.96V361.72C299.487 361.08 299.247 360.52 298.767 360.04C298.367 359.56 297.847 359.32 297.207 359.32H286.407C276.487 359.32 271.527 354.04 271.527 343.48V328C271.527 317.44 276.487 312.16 286.407 312.16H299.727C309.647 312.16 314.607 317.44 314.607 328V333.76ZM355.408 378.28V366.28H371.368V376.36C371.368 386.92 366.408 392.2 356.488 392.2H341.368C331.448 392.2 326.488 386.92 326.488 376.36V328C326.488 317.44 331.448 312.16 341.368 312.16H356.488C366.408 312.16 371.368 317.44 371.368 328V335.32H355.408V325.96C355.408 325.32 355.168 324.76 354.688 324.28C354.288 323.8 353.768 323.56 353.128 323.56H345.568C344.928 323.56 344.368 323.8 343.888 324.28C343.488 324.76 343.288 325.32 343.288 325.96V378.28C343.288 378.92 343.488 379.48 343.888 379.96C344.368 380.44 344.928 380.68 345.568 380.68H353.128C353.768 380.68 354.288 380.44 354.688 379.96C355.168 379.48 355.408 378.92 355.408 378.28ZM409.169 313.36H425.969V376.36C425.969 386.92 421.009 392.2 411.089 392.2H396.209C386.289 392.2 381.329 386.92 381.329 376.36V313.36H398.129V377.8C398.129 378.44 398.329 379 398.729 379.48C399.209 379.96 399.769 380.2 400.409 380.2H406.889C407.529 380.2 408.049 379.96 408.449 379.48C408.929 379 409.169 378.44 409.169 377.8V313.36ZM454.265 313.36V391H437.465V313.36H454.265ZM462.322 327.64V313.36H504.322V327.64H491.722V391H474.922V327.64H462.322ZM555.076 333.76H539.116V327.64C539.116 327 538.876 326.44 538.396 325.96C537.996 325.48 537.476 325.24 536.836 325.24H530.236C529.596 325.24 529.036 325.48 528.556 325.96C528.156 326.44 527.956 327 527.956 327.64V341.44C527.956 342.08 528.156 342.64 528.556 343.12C529.036 343.6 529.596 343.84 530.236 343.84H541.036C550.956 344 555.916 349.28 555.916 359.68V376.36C555.916 386.92 550.956 392.2 541.036 392.2H526.876C516.956 392.2 511.996 386.92 511.996 376.36V368.32H527.956V376.96C527.956 377.6 528.156 378.16 528.556 378.64C529.036 379.12 529.596 379.36 530.236 379.36H537.676C538.316 379.36 538.836 379.12 539.236 378.64C539.716 378.16 539.956 377.6 539.956 376.96V361.72C539.956 361.08 539.716 360.52 539.236 360.04C538.836 359.56 538.316 359.32 537.676 359.32H526.876C516.956 359.32 511.996 354.04 511.996 343.48V328C511.996 317.44 516.956 312.16 526.876 312.16H540.196C550.116 312.16 555.076 317.44 555.076 328V333.76Z" fill="#1ED760"/>
<path d="M182.5 128L193 143M310.5 84.5001L307.5 67.5001" stroke="#1DB954" stroke-width="3"/>
<path d="M307.5 67.5C362.7 56.3 430.5 60.4999 489.5 88.5" stroke="#1DB954" stroke-width="3"/>
<path d="M193 143C229 108.6 286.333 89.6667 310.5 84.5" stroke="#1DB954" stroke-width="3"/>
<path d="M82 301.5C103 198 157 147 182.5 128" stroke="#1DB954" stroke-width="3"/>
<circle cx="81.6495" cy="301.649" r="6" transform="rotate(70.6442 81.6495 301.649)" fill="#1DB954"/>
<circle cx="486.65" cy="87.6495" r="6" transform="rotate(70.6442 486.65 87.6495)" fill="#1DB954"/>
<path d="M511 100L503 113.5C459.8 86.3 381 71.5 328.5 81.5" stroke="#1DB954" stroke-width="3"/>
<path d="M635.5 244C613.5 184.8 561 128 511 100" stroke="#1DB954" stroke-width="3"/>
<path d="M537.5 136.5L527.5 150.5M578 205.5L566.5 213.5" stroke="#1DB954" stroke-width="3"/>
<path d="M566.5 213.5C539.3 173.1 488.5 135.5 447.5 122.5" stroke="#1DB954" stroke-width="3"/>
<path d="M527.5 150.5C555 173 572 193 578 205.5" stroke="#1DB954" stroke-width="3"/>
<path d="M641.5 342.5C643.9 277.7 602 184 537.5 136.5" stroke="#1DB954" stroke-width="3"/>
<circle cx="325.65" cy="130.649" r="6" transform="rotate(70.6442 325.65 130.649)" fill="#1DB954"/>
<path d="M154.75 209.5L168 219" stroke="#1DB954" stroke-width="3"/>
<path d="M142 232.5C145.053 225.153 149.418 217.386 154.75 209.5" stroke="#1DB954" stroke-width="3"/>
<path d="M248.5 125.5C217.347 140.469 177.356 176.063 154.75 209.5" stroke="#1DB954" stroke-width="3"/>
<path d="M168 219C193.5 178 223.5 158.5 240 148" stroke="#1DB954" stroke-width="3"/>
<path d="M569.666 554.962C597.519 526.41 626.838 487.601 642.786 431.823" stroke="#1DB954" stroke-width="3"/>
<path d="M98.5424 395.542C82.8297 307.366 119.639 226.056 145.204 193.227" stroke="#1DB954" stroke-width="3"/>
</g>
<defs>
<radialGradient id="paint0_radial_0_234" cx="0" cy="0" r="1" gradientUnits="userSpaceOnUse" gradientTransform="translate(366.5 347.5) rotate(90.0685) scale(418)">
<stop stop-color="#4D4C4C"/>
<stop offset="1"/>
</radialGradient>
<clipPath id="clip0_0_234">
<rect width="744" height="689" fill="white"/>
</clipPath>
</defs>
</svg>
